<svg width="120" height="120" viewBox="0 0 211 211" onfill="none" xmlns="http://www.w3.org/2000/svg">
<path fill-rule="evenodd" clip-rule="evenodd" d="M93 0.732788C44.7249 6.43145 6.43145 44.7249 0.73278 93H27.9898C33.3251 59.6573 59.6573 33.3251 93 27.9898V0.732788ZM93 183.01C59.3247 177.622 32.8004 150.815 27.8364 117H0.61956C5.90385 165.745 44.3921 204.529 93 210.267V183.01ZM117 210.38V183.164C151.149 178.151 178.151 151.149 183.164 117H210.38C205.06 166.079 166.079 205.06 117 210.38ZM117 27.8364V0.619568C165.745 5.90386 204.529 44.3921 210.267 93H183.01C177.622 59.3247 150.815 32.8004 117 27.8364Z" />
</svg>
