<svg width="100" height="100" viewBox="0 0 218 210" fill="none" xmlns="http://www.w3.org/2000/svg">
<path fill-rule="evenodd" clip-rule="evenodd" d="M96.3804 0.11322C48.1054 5.81189 9.81189 44.1053 4.11322 92.3804H31.3702C36.7055 59.0377 63.0378 32.7055 96.3804 27.3702V0.11322Z" fill="#FF0000"/>
<path fill-rule="evenodd" clip-rule="evenodd" d="M120.38 27.2168V0C169.126 5.28429 207.91 43.7725 213.648 92.3804H186.391C181.002 58.7051 154.196 32.1808 120.38 27.2168Z" fill="#FFE600"/>
<path fill-rule="evenodd" clip-rule="evenodd" d="M96.3804 182.391C62.7051 177.002 36.1808 150.196 31.2168 116.38H4C9.28429 165.126 47.7725 203.91 96.3804 209.648V182.391Z" fill="#FF00D6"/>
<path fill-rule="evenodd" clip-rule="evenodd" d="M120.38 182.544V209.761C169.46 204.44 208.44 165.46 213.761 116.38H186.544C181.531 150.53 154.53 177.531 120.38 182.544Z" fill="#03007D"/>
</svg>
